<svg width="131" height="76" viewBox="0 0 131 76" fill="none" xmlns="http://www.w3.org/2000/svg">
<g filter="url(#filter0_d)">
<rect x="4.5" y="0.5" width="122" height="67" rx="33.5" fill="#FFD8BE" stroke="black"/>
<path d="M48.2568 32.9269C49.6008 33.0869 50.6648 33.5349 51.4488 34.2709C52.2488 35.0069 52.6488 35.9189 52.6488 37.0069C52.6488 37.8389 52.4088 38.5909 51.9288 39.2629C51.4488 39.9349 50.7848 40.4709 49.9368 40.8709C49.0888 41.2549 48.1448 41.4469 47.1048 41.4469C46.6568 41.4469 46.1448 41.4229 45.5688 41.3749C45.3448 41.3589 45.0648 41.3429 44.7288 41.3269C44.4088 41.3109 44.0488 41.3029 43.6488 41.3029L41.8968 41.3269C41.5768 41.3429 41.1448 41.3509 40.6008 41.3509C40.5528 41.3509 40.5288 41.3029 40.5288 41.2069C40.5288 41.1109 40.5528 41.0629 40.6008 41.0629C41.0648 41.0629 41.4168 41.0229 41.6568 40.9429C41.8968 40.8469 42.0648 40.6869 42.1608 40.4629C42.2728 40.2229 42.3288 39.8709 42.3288 39.4069V28.2949C42.3288 27.6229 42.2168 27.1829 41.9928 26.9749C41.7688 26.7509 41.3128 26.6389 40.6248 26.6389C40.5928 26.6389 40.5768 26.5909 40.5768 26.4949C40.5768 26.3989 40.5928 26.3509 40.6248 26.3509L41.8968 26.3749C42.6328 26.4069 43.2168 26.4229 43.6488 26.4229C44.0968 26.4229 44.5608 26.3989 45.0408 26.3509C45.2008 26.3349 45.4408 26.3189 45.7608 26.3029C46.0808 26.2869 46.3608 26.2789 46.6008 26.2789C48.0568 26.2789 49.1848 26.5429 49.9848 27.0709C50.7848 27.5989 51.1848 28.3669 51.1848 29.3749C51.1848 30.1429 50.9288 30.8389 50.4168 31.4629C49.9208 32.0869 49.2008 32.5749 48.2568 32.9269ZM46.2408 26.8069C45.7768 26.8069 45.4568 26.9189 45.2808 27.1429C45.1048 27.3509 45.0168 27.7509 45.0168 28.3429V32.9029L45.9768 32.9269C46.8088 32.9269 47.4488 32.6149 47.8968 31.9909C48.3448 31.3669 48.5688 30.5669 48.5688 29.5909C48.5688 28.6789 48.3688 27.9909 47.9688 27.5269C47.5688 27.0469 46.9928 26.8069 46.2408 26.8069ZM46.6968 40.8469C48.7928 40.8469 49.8408 39.7589 49.8408 37.5829C49.8408 36.3509 49.5448 35.3749 48.9528 34.6549C48.3608 33.9349 47.4648 33.5749 46.2648 33.5749C45.8008 33.5749 45.3848 33.5909 45.0168 33.6229V39.4069C45.0168 39.9349 45.1208 40.3109 45.3288 40.5349C45.5368 40.7429 45.9928 40.8469 46.6968 40.8469ZM58.4262 39.3109C58.4262 39.7429 58.4662 40.0629 58.5462 40.2709C58.6262 40.4789 58.7782 40.6309 59.0022 40.7269C59.2422 40.8069 59.5942 40.8469 60.0582 40.8469H60.3222C61.2342 40.8469 62.0662 40.5509 62.8182 39.9589C63.5702 39.3669 64.1222 38.5669 64.4742 37.5589C64.4902 37.5269 64.5382 37.5189 64.6182 37.5349C64.7142 37.5349 64.7622 37.5509 64.7622 37.5829C64.6502 38.4309 64.5942 39.5669 64.5942 40.9909C64.5942 41.1189 64.5622 41.2149 64.4982 41.2789C64.4502 41.3269 64.3542 41.3509 64.2102 41.3509H54.6102C54.5782 41.3509 54.5622 41.3029 54.5622 41.2069C54.5622 41.1109 54.5782 41.0629 54.6102 41.0629C55.0262 41.0629 55.3302 41.0229 55.5222 40.9429C55.7142 40.8629 55.8422 40.7109 55.9062 40.4869C55.9862 40.2469 56.0262 39.8869 56.0262 39.4069V32.0629C56.0262 31.5829 55.9862 31.2309 55.9062 31.0069C55.8422 30.7829 55.7142 30.6309 55.5222 30.5509C55.3302 30.4549 55.0262 30.4069 54.6102 30.4069C54.5782 30.4069 54.5622 30.3589 54.5622 30.2629C54.5622 30.1669 54.5782 30.1189 54.6102 30.1189L55.7862 30.1429C56.4582 30.1749 56.9782 30.1909 57.3462 30.1909C57.7622 30.1909 58.3062 30.1749 58.9782 30.1429L60.0822 30.1189C60.1302 30.1189 60.1542 30.1669 60.1542 30.2629C60.1542 30.3589 60.1302 30.4069 60.0822 30.4069C59.6022 30.4069 59.2422 30.4549 59.0022 30.5509C58.7782 30.6309 58.6262 30.7909 58.5462 31.0309C58.4662 31.2549 58.4262 31.6069 58.4262 32.0869V39.3109ZM71.7168 41.6389C70.5808 41.6389 69.5648 41.3749 68.6688 40.8469C67.7728 40.3029 67.0768 39.5829 66.5808 38.6869C66.0848 37.7749 65.8368 36.7909 65.8368 35.7349C65.8368 34.5189 66.1488 33.4629 66.7728 32.5669C67.4128 31.6709 68.2208 30.9909 69.1968 30.5269C70.1888 30.0629 71.2048 29.8309 72.2448 29.8309C73.3808 29.8309 74.3808 30.1109 75.2448 30.6709C76.1248 31.2149 76.8048 31.9349 77.2848 32.8309C77.7648 33.7109 78.0048 34.6389 78.0048 35.6149C78.0048 36.6869 77.7248 37.6869 77.1648 38.6149C76.6048 39.5269 75.8448 40.2629 74.8848 40.8229C73.9248 41.3669 72.8688 41.6389 71.7168 41.6389ZM72.2688 41.0869C73.1648 41.0869 73.8848 40.6469 74.4288 39.7669C74.9888 38.8869 75.2688 37.6709 75.2688 36.1189C75.2688 35.0629 75.1088 34.1029 74.7888 33.2389C74.4688 32.3749 74.0128 31.6949 73.4208 31.1989C72.8448 30.6869 72.1728 30.4309 71.4048 30.4309C70.4768 30.4309 69.7728 30.8149 69.2928 31.5829C68.8128 32.3509 68.5728 33.4869 68.5728 34.9909C68.5728 36.1269 68.7328 37.1669 69.0528 38.1109C69.3888 39.0389 69.8368 39.7669 70.3968 40.2949C70.9568 40.8229 71.5808 41.0869 72.2688 41.0869ZM85.7179 41.6389C84.4379 41.6389 83.3179 41.3749 82.3579 40.8469C81.4139 40.3029 80.6939 39.5909 80.1979 38.7109C79.7019 37.8309 79.4539 36.9029 79.4539 35.9269C79.4539 34.6789 79.7339 33.5989 80.2939 32.6869C80.8699 31.7589 81.6779 31.0549 82.7179 30.5749C83.7579 30.0789 84.9819 29.8309 86.3899 29.8309C87.0939 29.8309 87.7659 29.8949 88.4059 30.0229C89.0619 30.1509 89.6059 30.3349 90.0379 30.5749C90.1499 30.6229 90.2139 30.6789 90.2299 30.7429C90.2619 30.8069 90.2859 30.9269 90.3019 31.1029L90.4219 33.3589C90.4219 33.4069 90.3739 33.4389 90.2779 33.4549C90.1979 33.4549 90.1499 33.4309 90.1339 33.3829C88.9019 31.3669 87.4699 30.3589 85.8379 30.3589C84.7019 30.3589 83.8059 30.8149 83.1499 31.7269C82.5099 32.6389 82.1899 33.9349 82.1899 35.6149C82.1899 37.2469 82.5579 38.5669 83.2939 39.5749C84.0299 40.5829 85.0299 41.0869 86.2939 41.0869C86.9339 41.0869 87.3979 41.0229 87.6859 40.8949C87.9899 40.7509 88.1899 40.4949 88.2859 40.1269C88.3979 39.7429 88.4539 39.1429 88.4539 38.3269C88.4539 37.9109 88.4219 37.6229 88.3579 37.4629C88.2939 37.2869 88.1579 37.1749 87.9499 37.1269C87.7419 37.0629 87.3819 37.0309 86.8699 37.0309C86.7739 37.0309 86.7259 36.9669 86.7259 36.8389C86.7259 36.7909 86.7339 36.7509 86.7499 36.7189C86.7819 36.6709 86.8139 36.6469 86.8459 36.6469C87.6779 36.7109 88.5179 36.7429 89.3659 36.7429C89.7499 36.7429 90.3899 36.7269 91.2859 36.6949C91.3179 36.6949 91.3419 36.7189 91.3579 36.7669C91.3899 36.7989 91.4059 36.8309 91.4059 36.8629C91.4059 36.9749 91.3659 37.0309 91.2859 37.0309C91.0459 37.0149 90.8779 37.0389 90.7819 37.1029C90.6859 37.1669 90.6219 37.3029 90.5899 37.5109C90.5579 37.7029 90.5419 38.0549 90.5419 38.5669C90.5419 39.2869 90.5579 39.7909 90.5899 40.0789C90.6379 40.3669 90.6619 40.5669 90.6619 40.6789C90.6619 40.7749 90.6459 40.8389 90.6139 40.8709C90.5819 40.8869 90.5019 40.9189 90.3739 40.9669C89.3019 41.4149 87.7499 41.6389 85.7179 41.6389Z" fill="black"/>
</g>
<defs>
<filter id="filter0_d" x="0" y="0" width="131" height="76" filterUnits="userSpaceOnUse" color-interpolation-filters="sRGB">
<feFlood flood-opacity="0" result="BackgroundImageFix"/>
<feColorMatrix in="SourceAlpha" type="matrix" values="0 0 0 0 0 0 0 0 0 0 0 0 0 0 0 0 0 0 127 0"/>
<feOffset dy="4"/>
<feGaussianBlur stdDeviation="2"/>
<feColorMatrix type="matrix" values="0 0 0 0 0 0 0 0 0 0 0 0 0 0 0 0 0 0 0.25 0"/>
<feBlend mode="normal" in2="BackgroundImageFix" result="effect1_dropShadow"/>
<feBlend mode="normal" in="SourceGraphic" in2="effect1_dropShadow" result="shape"/>
</filter>
</defs>
</svg>
