<svg width="224" height="144" viewBox="0 0 224 144" fill="none" xmlns="http://www.w3.org/2000/svg">
<g filter="url(#filter0_d)">
<rect x="4.5" y="36.5" width="215" height="99" rx="49.5" fill="#FFD8BE" stroke="black"/>
<path d="M60.2407 114.736C60.9447 114.736 61.6807 114.8 62.4487 114.928C63.2167 115.04 63.8167 115.192 64.2487 115.384C64.3927 115.432 64.4807 115.496 64.5127 115.576C64.5607 115.64 64.6007 115.76 64.6327 115.936L64.9207 119.272C64.9207 119.32 64.8807 119.352 64.8007 119.368C64.7207 119.384 64.6727 119.36 64.6567 119.296C64.1127 118.032 63.3847 117.056 62.4727 116.368C61.5607 115.68 60.5047 115.336 59.3047 115.336C57.7207 115.336 56.4967 115.92 55.6327 117.088C54.7687 118.256 54.3367 119.824 54.3367 121.792C54.3367 123.264 54.5687 124.608 55.0327 125.824C55.5127 127.04 56.1767 128.008 57.0247 128.728C57.8887 129.432 58.8647 129.784 59.9527 129.784C60.9767 129.784 61.8887 129.448 62.6887 128.776C63.5047 128.088 64.2327 127.048 64.8727 125.656C64.8887 125.592 64.9367 125.568 65.0167 125.584C65.1127 125.6 65.1607 125.632 65.1607 125.68L64.8007 128.944C64.7687 129.136 64.7287 129.264 64.6807 129.328C64.6487 129.376 64.5607 129.432 64.4167 129.496C62.9927 130.024 61.5287 130.288 60.0247 130.288C58.0727 130.288 56.4407 129.904 55.1287 129.136C53.8167 128.352 52.8487 127.368 52.2247 126.184C51.6167 124.984 51.3127 123.736 51.3127 122.44C51.3127 120.92 51.7207 119.576 52.5367 118.408C53.3687 117.24 54.4647 116.336 55.8247 115.696C57.2007 115.056 58.6727 114.736 60.2407 114.736ZM72.7914 130.288C71.6554 130.288 70.6394 130.024 69.7434 129.496C68.8474 128.952 68.1514 128.232 67.6554 127.336C67.1594 126.424 66.9114 125.44 66.9114 124.384C66.9114 123.168 67.2234 122.112 67.8474 121.216C68.4874 120.32 69.2954 119.64 70.2714 119.176C71.2634 118.712 72.2794 118.48 73.3194 118.48C74.4554 118.48 75.4554 118.76 76.3194 119.32C77.1994 119.864 77.8794 120.584 78.3594 121.48C78.8394 122.36 79.0794 123.288 79.0794 124.264C79.0794 125.336 78.7994 126.336 78.2394 127.264C77.6794 128.176 76.9194 128.912 75.9594 129.472C74.9994 130.016 73.9434 130.288 72.7914 130.288ZM73.3434 129.736C74.2394 129.736 74.9594 129.296 75.5034 128.416C76.0634 127.536 76.3434 126.32 76.3434 124.768C76.3434 123.712 76.1834 122.752 75.8634 121.888C75.5434 121.024 75.0874 120.344 74.4954 119.848C73.9194 119.336 73.2474 119.08 72.4794 119.08C71.5514 119.08 70.8474 119.464 70.3674 120.232C69.8874 121 69.6474 122.136 69.6474 123.64C69.6474 124.776 69.8074 125.816 70.1274 126.76C70.4634 127.688 70.9114 128.416 71.4714 128.944C72.0314 129.472 72.6554 129.736 73.3434 129.736ZM93.3926 129.712C93.4406 129.712 93.4646 129.76 93.4646 129.856C93.4646 129.952 93.4406 130 93.3926 130H89.4566C89.2166 130 88.7846 129.52 88.1606 128.56C87.5526 127.6 86.8246 126.28 85.9766 124.6C85.6406 124.648 85.3046 124.672 84.9686 124.672H84.5606V128.056C84.5606 128.552 84.5926 128.912 84.6566 129.136C84.7366 129.36 84.8726 129.512 85.0646 129.592C85.2726 129.672 85.6006 129.712 86.0486 129.712C86.0806 129.712 86.0966 129.76 86.0966 129.856C86.0966 129.952 86.0806 130 86.0486 130C85.5686 130 85.1926 129.992 84.9206 129.976L83.2886 129.952L81.7286 129.976C81.4406 129.992 81.0406 130 80.5286 130C80.4966 130 80.4806 129.952 80.4806 129.856C80.4806 129.76 80.4966 129.712 80.5286 129.712C80.9766 129.712 81.3046 129.672 81.5126 129.592C81.7206 129.512 81.8646 129.36 81.9446 129.136C82.0246 128.896 82.0646 128.536 82.0646 128.056V120.712C82.0646 120.232 82.0246 119.88 81.9446 119.656C81.8806 119.432 81.7446 119.28 81.5366 119.2C81.3286 119.104 81.0086 119.056 80.5766 119.056C80.5286 119.056 80.5046 119.008 80.5046 118.912C80.5046 118.816 80.5286 118.768 80.5766 118.768L81.7526 118.792C82.3926 118.824 82.9046 118.84 83.2886 118.84C83.5926 118.84 83.8726 118.832 84.1286 118.816C84.3846 118.8 84.6086 118.784 84.8006 118.768C85.3286 118.72 85.8246 118.696 86.2886 118.696C87.5366 118.696 88.4886 118.896 89.1446 119.296C89.8006 119.696 90.1286 120.272 90.1286 121.024C90.1286 121.648 89.9286 122.224 89.5286 122.752C89.1286 123.28 88.5766 123.712 87.8726 124.048C88.7366 125.504 89.4806 126.64 90.1046 127.456C90.7286 128.272 91.2966 128.856 91.8086 129.208C92.3206 129.544 92.8486 129.712 93.3926 129.712ZM84.5606 124.192C84.6726 124.208 84.8646 124.216 85.1366 124.216C86.0486 124.216 86.6806 124.008 87.0326 123.592C87.3846 123.16 87.5606 122.52 87.5606 121.672C87.5606 120.008 86.9526 119.176 85.7366 119.176C85.4006 119.176 85.1526 119.216 84.9926 119.296C84.8326 119.376 84.7206 119.528 84.6566 119.752C84.5926 119.96 84.5606 120.296 84.5606 120.76V124.192ZM102.918 126.808C102.95 126.76 103.006 126.736 103.086 126.736C103.166 126.736 103.206 126.76 103.206 126.808C103.094 127.96 103.038 128.904 103.038 129.64C103.038 129.768 103.014 129.864 102.966 129.928C102.918 129.976 102.822 130 102.678 130H93.6536C93.6216 130 93.6056 129.952 93.6056 129.856C93.6056 129.76 93.6216 129.712 93.6536 129.712C94.1176 129.712 94.4536 129.672 94.6616 129.592C94.8696 129.512 95.0136 129.36 95.0936 129.136C95.1736 128.896 95.2136 128.536 95.2136 128.056V120.712C95.2136 120.232 95.1736 119.88 95.0936 119.656C95.0136 119.432 94.8616 119.28 94.6376 119.2C94.4296 119.104 94.1016 119.056 93.6536 119.056C93.6216 119.056 93.6056 119.008 93.6056 118.912C93.6056 118.816 93.6216 118.768 93.6536 118.768H102.246C102.406 118.768 102.486 118.832 102.486 118.96L102.51 120.448C102.526 120.752 102.534 121.136 102.534 121.6C102.534 121.648 102.486 121.672 102.39 121.672C102.31 121.672 102.262 121.648 102.246 121.6C101.942 120.896 101.478 120.304 100.854 119.824C100.23 119.328 99.5976 119.08 98.9576 119.08H98.7896C98.4376 119.08 98.1736 119.128 97.9976 119.224C97.8376 119.304 97.7256 119.456 97.6616 119.68C97.6136 119.904 97.5896 120.256 97.5896 120.736V123.976C98.8056 123.96 99.7016 123.912 100.278 123.832C100.854 123.752 101.182 123.712 101.262 123.712C101.374 123.712 101.43 123.888 101.43 124.24C101.43 124.4 101.414 124.544 101.382 124.672C101.35 124.8 101.31 124.864 101.262 124.864C101.166 124.864 100.83 124.824 100.254 124.744C99.6776 124.664 98.7896 124.608 97.5896 124.576V127.96C97.5896 128.44 97.6136 128.792 97.6616 129.016C97.7256 129.24 97.8376 129.4 97.9976 129.496C98.1736 129.576 98.4376 129.616 98.7896 129.616H99.0536C99.8056 129.616 100.55 129.352 101.286 128.824C102.022 128.28 102.566 127.608 102.918 126.808ZM115.994 118.768C116.042 118.768 116.066 118.816 116.066 118.912C116.066 119.008 116.042 119.056 115.994 119.056C115.018 119.056 114.13 119.776 113.33 121.216L111.506 124.504V128.056C111.506 128.552 111.546 128.912 111.626 129.136C111.706 129.36 111.866 129.512 112.106 129.592C112.346 129.672 112.738 129.712 113.282 129.712C113.314 129.712 113.33 129.76 113.33 129.856C113.33 129.952 113.314 130 113.282 130C112.754 130 112.338 129.992 112.034 129.976L110.234 129.952L108.53 129.976C108.21 129.992 107.77 130 107.21 130C107.162 130 107.138 129.952 107.138 129.856C107.138 129.76 107.162 129.712 107.21 129.712C107.738 129.712 108.122 129.672 108.362 129.592C108.618 129.512 108.786 129.36 108.866 129.136C108.962 128.896 109.01 128.536 109.01 128.056V124.864L106.37 120.76C105.986 120.152 105.618 119.72 105.266 119.464C104.93 119.192 104.578 119.056 104.21 119.056C104.162 119.056 104.138 119.008 104.138 118.912C104.138 118.816 104.162 118.768 104.21 118.768L105.098 118.792L106.058 118.84C106.538 118.84 107.29 118.824 108.314 118.792L109.826 118.768C109.858 118.768 109.874 118.816 109.874 118.912C109.874 119.008 109.858 119.056 109.826 119.056C109.042 119.056 108.65 119.256 108.65 119.656C108.65 119.848 108.754 120.096 108.962 120.4L111.194 123.88L112.658 121.192C112.898 120.76 113.018 120.376 113.018 120.04C113.018 119.736 112.914 119.496 112.706 119.32C112.514 119.144 112.21 119.056 111.794 119.056C111.746 119.056 111.722 119.008 111.722 118.912C111.722 118.816 111.746 118.768 111.794 118.768L112.946 118.792C113.586 118.824 114.17 118.84 114.698 118.84C114.89 118.84 115.13 118.824 115.418 118.792L115.994 118.768ZM129.469 130.096C128.957 130.096 128.349 130.072 127.645 130.024C127.389 130.008 127.069 129.992 126.685 129.976C126.317 129.96 125.901 129.952 125.437 129.952L123.661 129.976C123.341 129.992 122.909 130 122.365 130C122.333 130 122.317 129.952 122.317 129.856C122.317 129.76 122.333 129.712 122.365 129.712C122.877 129.712 123.253 129.672 123.493 129.592C123.733 129.512 123.893 129.36 123.973 129.136C124.069 128.896 124.117 128.536 124.117 128.056V116.944C124.117 116.464 124.069 116.112 123.973 115.888C123.893 115.664 123.733 115.512 123.493 115.432C123.269 115.336 122.909 115.288 122.413 115.288C122.365 115.288 122.341 115.24 122.341 115.144C122.341 115.048 122.365 115 122.413 115L123.685 115.024C124.421 115.056 125.005 115.072 125.437 115.072C126.093 115.072 126.765 115.048 127.453 115C128.285 114.968 128.845 114.952 129.133 114.952C130.749 114.952 132.181 115.272 133.429 115.912C134.693 116.552 135.669 117.424 136.357 118.528C137.045 119.632 137.389 120.872 137.389 122.248C137.389 123.8 137.029 125.176 136.309 126.376C135.605 127.56 134.645 128.48 133.429 129.136C132.229 129.776 130.909 130.096 129.469 130.096ZM129.229 129.544C130.253 129.544 131.157 129.288 131.941 128.776C132.725 128.248 133.333 127.472 133.765 126.448C134.213 125.424 134.437 124.2 134.437 122.776C134.437 121.416 134.229 120.184 133.813 119.08C133.397 117.96 132.805 117.08 132.037 116.44C131.269 115.8 130.381 115.48 129.373 115.48C128.381 115.48 127.701 115.576 127.333 115.768C126.965 115.96 126.781 116.368 126.781 116.992V127.792C126.781 128.432 126.949 128.888 127.285 129.16C127.621 129.416 128.269 129.544 129.229 129.544ZM148.55 126.808C148.582 126.76 148.638 126.736 148.718 126.736C148.798 126.736 148.838 126.76 148.838 126.808C148.726 127.96 148.67 128.904 148.67 129.64C148.67 129.768 148.646 129.864 148.598 129.928C148.55 129.976 148.454 130 148.31 130H139.286C139.254 130 139.238 129.952 139.238 129.856C139.238 129.76 139.254 129.712 139.286 129.712C139.75 129.712 140.086 129.672 140.294 129.592C140.502 129.512 140.646 129.36 140.726 129.136C140.806 128.896 140.846 128.536 140.846 128.056V120.712C140.846 120.232 140.806 119.88 140.726 119.656C140.646 119.432 140.494 119.28 140.27 119.2C140.062 119.104 139.734 119.056 139.286 119.056C139.254 119.056 139.238 119.008 139.238 118.912C139.238 118.816 139.254 118.768 139.286 118.768H147.878C148.038 118.768 148.118 118.832 148.118 118.96L148.142 120.448C148.158 120.752 148.166 121.136 148.166 121.6C148.166 121.648 148.118 121.672 148.022 121.672C147.942 121.672 147.894 121.648 147.878 121.6C147.574 120.896 147.11 120.304 146.486 119.824C145.862 119.328 145.23 119.08 144.59 119.08H144.422C144.07 119.08 143.806 119.128 143.63 119.224C143.47 119.304 143.358 119.456 143.294 119.68C143.246 119.904 143.222 120.256 143.222 120.736V123.976C144.438 123.96 145.334 123.912 145.91 123.832C146.486 123.752 146.814 123.712 146.894 123.712C147.006 123.712 147.062 123.888 147.062 124.24C147.062 124.4 147.046 124.544 147.014 124.672C146.982 124.8 146.942 124.864 146.894 124.864C146.798 124.864 146.462 124.824 145.886 124.744C145.31 124.664 144.422 124.608 143.222 124.576V127.96C143.222 128.44 143.246 128.792 143.294 129.016C143.358 129.24 143.47 129.4 143.63 129.496C143.806 129.576 144.07 129.616 144.422 129.616H144.686C145.438 129.616 146.182 129.352 146.918 128.824C147.654 128.28 148.198 127.608 148.55 126.808ZM156.299 130.288C155.163 130.288 154.147 130.024 153.251 129.496C152.355 128.952 151.659 128.232 151.163 127.336C150.667 126.424 150.419 125.44 150.419 124.384C150.419 123.168 150.731 122.112 151.355 121.216C151.995 120.32 152.803 119.64 153.779 119.176C154.771 118.712 155.787 118.48 156.827 118.48C157.963 118.48 158.963 118.76 159.827 119.32C160.707 119.864 161.387 120.584 161.867 121.48C162.347 122.36 162.587 123.288 162.587 124.264C162.587 125.336 162.307 126.336 161.747 127.264C161.187 128.176 160.427 128.912 159.467 129.472C158.507 130.016 157.451 130.288 156.299 130.288ZM156.851 129.736C157.747 129.736 158.467 129.296 159.011 128.416C159.571 127.536 159.851 126.32 159.851 124.768C159.851 123.712 159.691 122.752 159.371 121.888C159.051 121.024 158.595 120.344 158.003 119.848C157.427 119.336 156.755 119.08 155.987 119.08C155.059 119.08 154.355 119.464 153.875 120.232C153.395 121 153.155 122.136 153.155 123.64C153.155 124.776 153.315 125.816 153.635 126.76C153.971 127.688 154.419 128.416 154.979 128.944C155.539 129.472 156.163 129.736 156.851 129.736ZM176.612 118.768C176.66 118.768 176.684 118.816 176.684 118.912C176.684 119.008 176.66 119.056 176.612 119.056C175.972 119.056 175.5 119.28 175.196 119.728C174.892 120.176 174.74 120.88 174.74 121.84V130.264C174.74 130.296 174.7 130.32 174.62 130.336C174.54 130.352 174.484 130.344 174.452 130.312L166.028 120.808V126.952C166.028 127.896 166.172 128.592 166.46 129.04C166.764 129.488 167.228 129.712 167.852 129.712C167.9 129.712 167.924 129.76 167.924 129.856C167.924 129.952 167.9 130 167.852 130C167.468 130 167.172 129.992 166.964 129.976L165.812 129.952L164.66 129.976C164.436 129.992 164.116 130 163.7 130C163.668 130 163.652 129.952 163.652 129.856C163.652 129.76 163.668 129.712 163.7 129.712C164.34 129.712 164.812 129.488 165.116 129.04C165.42 128.592 165.572 127.896 165.572 126.952V120.328C165.14 119.88 164.756 119.56 164.42 119.368C164.1 119.16 163.788 119.056 163.484 119.056C163.452 119.056 163.436 119.008 163.436 118.912C163.436 118.816 163.452 118.768 163.484 118.768L164.828 118.792C164.956 118.792 165.132 118.792 165.356 118.792C165.58 118.776 166.148 118.768 167.06 118.768C167.188 118.768 167.292 118.808 167.372 118.888C167.468 118.968 167.612 119.12 167.804 119.344C167.932 119.536 168.108 119.76 168.332 120.016L174.26 126.64V121.84C174.26 120.88 174.116 120.176 173.828 119.728C173.54 119.28 173.076 119.056 172.436 119.056C172.404 119.056 172.388 119.008 172.388 118.912C172.388 118.816 172.404 118.768 172.436 118.768L173.348 118.792C173.828 118.824 174.204 118.84 174.476 118.84C174.748 118.84 175.14 118.824 175.652 118.792L176.612 118.768Z" fill="black"/>
<g filter="url(#filter1_d)">
<path d="M143.088 52.602C148.071 52.602 152.486 53.5887 156.334 55.562C160.231 57.5353 163.241 60.224 165.362 63.628C167.483 67.032 168.544 70.8553 168.544 75.098C168.544 79.8833 167.434 84.126 165.214 87.826C163.043 91.4767 160.083 94.3133 156.334 96.336C152.634 98.3093 148.564 99.296 144.124 99.296C142.545 99.296 140.671 99.222 138.5 99.074C137.711 99.0247 136.724 98.9753 135.54 98.926C134.405 98.8767 133.123 98.852 131.692 98.852L126.216 98.926C125.229 98.9753 123.897 99 122.22 99C122.121 99 122.072 98.852 122.072 98.556C122.072 98.26 122.121 98.112 122.22 98.112C123.799 98.112 124.958 97.9887 125.698 97.742C126.438 97.4953 126.931 97.0267 127.178 96.336C127.474 95.596 127.622 94.486 127.622 93.006V77.022H123.922C123.725 77.022 123.626 76.6767 123.626 75.986C123.626 75.2953 123.725 74.95 123.922 74.95H127.622V58.744C127.622 57.264 127.474 56.1787 127.178 55.488C126.931 54.7973 126.438 54.3287 125.698 54.082C125.007 53.786 123.897 53.638 122.368 53.638C122.22 53.638 122.146 53.49 122.146 53.194C122.146 52.898 122.22 52.75 122.368 52.75L126.29 52.824C128.559 52.9227 130.36 52.972 131.692 52.972C133.715 52.972 135.787 52.898 137.908 52.75C140.473 52.6513 142.2 52.602 143.088 52.602ZM143.384 97.594C146.541 97.594 149.329 96.8047 151.746 95.226C154.163 93.598 156.038 91.2053 157.37 88.048C158.751 84.8907 159.442 81.1167 159.442 76.726C159.442 72.5327 158.801 68.734 157.518 65.33C156.235 61.8767 154.41 59.1633 152.042 57.19C149.674 55.2167 146.936 54.23 143.828 54.23C140.769 54.23 138.673 54.526 137.538 55.118C136.403 55.71 135.836 56.968 135.836 58.892V74.95H145.9C145.999 74.95 146.073 75.0733 146.122 75.32C146.221 75.5173 146.27 75.7393 146.27 75.986C146.27 76.2327 146.221 76.4793 146.122 76.726C146.073 76.9233 145.999 77.022 145.9 77.022H135.836V92.192C135.836 94.1653 136.354 95.5713 137.39 96.41C138.426 97.1993 140.424 97.594 143.384 97.594Z" fill="black"/>
</g>
<g filter="url(#filter2_d)">
<path d="M86.0116 108.546C80.3929 108.546 75.1989 107.403 70.4296 105.116C65.7256 102.829 61.9689 99.53 59.1596 95.218C56.3503 90.8407 54.9456 85.712 54.9456 79.832C54.9456 73.8867 56.5463 68.562 59.7476 63.858C62.9489 59.154 67.1629 55.4953 72.3896 52.882C77.6816 50.2033 83.2349 48.864 89.0496 48.864C94.1456 48.864 98.6536 49.942 102.574 52.098C106.494 54.1887 109.499 56.998 111.59 60.526C113.746 64.054 114.824 67.8433 114.824 71.894C114.824 75.7487 113.713 79.4073 111.492 82.87C109.27 86.2673 106.167 89.044 102.182 91.2C98.2616 93.2907 93.8516 94.336 88.9516 94.336C82.8103 94.336 78.2696 92.8333 75.3296 89.828C72.3896 86.8227 70.9196 83.2293 70.9196 79.048C70.9196 75.6507 71.7363 72.7107 73.3696 70.228C75.0683 67.7453 77.2243 65.8507 79.8376 64.544C82.5163 63.172 85.3256 62.486 88.2656 62.486C91.0096 62.486 93.4269 63.0087 95.5176 64.054C97.6736 65.034 98.7516 66.504 98.7516 68.464C98.7516 71.208 97.3469 72.58 94.5376 72.58C93.5576 72.58 92.7409 72.286 92.0876 71.698C91.4343 71.0447 90.8463 70.1627 90.3236 69.052C89.5396 67.6147 88.7883 66.5693 88.0696 65.916C87.3509 65.1973 86.3383 64.838 85.0316 64.838C83.0063 64.838 81.6343 65.6873 80.9156 67.386C80.1969 69.0847 79.8376 71.8287 79.8376 75.618C79.8376 80.2567 81.0136 84.0787 83.3656 87.084C85.7176 90.0893 89.3109 91.592 94.1456 91.592C96.5629 91.592 98.8496 90.906 101.006 89.534C103.227 88.162 104.991 86.2347 106.298 83.752C107.604 81.204 108.258 78.2967 108.258 75.03C108.258 70.6527 107.278 66.6347 105.318 62.976C103.358 59.3173 100.646 56.4427 97.1836 54.352C93.7209 52.196 89.8663 51.118 85.6196 51.118C80.7849 51.118 76.5709 52.294 72.9776 54.646C69.4496 56.998 66.7709 60.1667 64.9416 64.152C63.1123 68.1373 62.1976 72.5147 62.1976 77.284C62.1976 82.9027 63.3083 87.8027 65.5296 91.984C67.8163 96.1653 71.0176 99.3993 75.1336 101.686C79.2496 103.973 84.0843 105.116 89.6376 105.116C92.9696 105.116 96.0403 104.757 98.8496 104.038C101.724 103.319 104.664 102.013 107.67 100.118H107.768C107.964 100.118 108.127 100.249 108.258 100.51C108.454 100.706 108.454 100.837 108.258 100.902C104.599 103.777 100.94 105.769 97.2816 106.88C93.6883 107.991 89.9316 108.546 86.0116 108.546Z" fill="black"/>
</g>
</g>
<defs>
<filter id="filter0_d" x="0" y="0" width="224" height="144" filterUnits="userSpaceOnUse" color-interpolation-filters="sRGB">
<feFlood flood-opacity="0" result="BackgroundImageFix"/>
<feColorMatrix in="SourceAlpha" type="matrix" values="0 0 0 0 0 0 0 0 0 0 0 0 0 0 0 0 0 0 127 0"/>
<feOffset dy="4"/>
<feGaussianBlur stdDeviation="2"/>
<feColorMatrix type="matrix" values="0 0 0 0 0 0 0 0 0 0 0 0 0 0 0 0 0 0 0.25 0"/>
<feBlend mode="normal" in2="BackgroundImageFix" result="effect1_dropShadow"/>
<feBlend mode="normal" in="SourceGraphic" in2="effect1_dropShadow" result="shape"/>
</filter>
<filter id="filter1_d" x="120.072" y="50.602" width="58.472" height="58.694" filterUnits="userSpaceOnUse" color-interpolation-filters="sRGB">
<feFlood flood-opacity="0" result="BackgroundImageFix"/>
<feColorMatrix in="SourceAlpha" type="matrix" values="0 0 0 0 0 0 0 0 0 0 0 0 0 0 0 0 0 0 127 0"/>
<feOffset dx="4" dy="4"/>
<feGaussianBlur stdDeviation="3"/>
<feColorMatrix type="matrix" values="0 0 0 0 0 0 0 0 0 0 0 0 0 0 0 0 0 0 0.25 0"/>
<feBlend mode="normal" in2="BackgroundImageFix" result="effect1_dropShadow"/>
<feBlend mode="normal" in="SourceGraphic" in2="effect1_dropShadow" result="shape"/>
</filter>
<filter id="filter2_d" x="52.9456" y="46.864" width="71.878" height="71.682" filterUnits="userSpaceOnUse" color-interpolation-filters="sRGB">
<feFlood flood-opacity="0" result="BackgroundImageFix"/>
<feColorMatrix in="SourceAlpha" type="matrix" values="0 0 0 0 0 0 0 0 0 0 0 0 0 0 0 0 0 0 127 0"/>
<feOffset dx="4" dy="4"/>
<feGaussianBlur stdDeviation="3"/>
<feColorMatrix type="matrix" values="0 0 0 0 0 0 0 0 0 0 0 0 0 0 0 0 0 0 0.25 0"/>
<feBlend mode="normal" in2="BackgroundImageFix" result="effect1_dropShadow"/>
<feBlend mode="normal" in="SourceGraphic" in2="effect1_dropShadow" result="shape"/>
</filter>
</defs>
</svg>
