<svg width="131" height="76" viewBox="0 0 131 76" fill="none" xmlns="http://www.w3.org/2000/svg">
<g filter="url(#filter0_d)">
<rect x="4.5" y="0.5" width="122" height="67" rx="33.5" fill="#FFD8BE" stroke="black"/>
<path d="M24.8086 39.3109C24.8086 39.8229 24.8646 40.1989 24.9766 40.4389C25.0886 40.6629 25.2966 40.8229 25.6006 40.9189C25.9206 41.0149 26.4246 41.0629 27.1126 41.0629C27.1606 41.0629 27.1846 41.1109 27.1846 41.2069C27.1846 41.3029 27.1606 41.3509 27.1126 41.3509C26.4566 41.3509 25.9446 41.3429 25.5766 41.3269L23.4886 41.3029L21.7366 41.3269C21.4166 41.3429 20.9846 41.3509 20.4406 41.3509C20.3926 41.3509 20.3686 41.3029 20.3686 41.2069C20.3686 41.1109 20.3926 41.0629 20.4406 41.0629C20.9526 41.0629 21.3206 41.0229 21.5446 40.9429C21.7846 40.8629 21.9446 40.7109 22.0246 40.4869C22.1046 40.2469 22.1446 39.8869 22.1446 39.4069V28.2949C22.1446 27.8149 22.1046 27.4629 22.0246 27.2389C21.9446 27.0149 21.7846 26.8629 21.5446 26.7829C21.3046 26.6869 20.9366 26.6389 20.4406 26.6389C20.3926 26.6389 20.3686 26.5909 20.3686 26.4949C20.3686 26.3989 20.3926 26.3509 20.4406 26.3509L21.7126 26.3749C22.4486 26.4069 23.0326 26.4229 23.4646 26.4229C23.8486 26.4229 24.3046 26.3989 24.8326 26.3509C25.0406 26.3349 25.3046 26.3189 25.6246 26.3029C25.9446 26.2869 26.3126 26.2789 26.7286 26.2789C28.3606 26.2789 29.6486 26.6229 30.5926 27.3109C31.5366 27.9829 32.0086 29.0309 32.0086 30.4549C32.0086 31.4469 31.7526 32.2869 31.2406 32.9749C30.7286 33.6629 30.0646 34.1829 29.2486 34.5349C28.4486 34.8869 27.6246 35.0629 26.7766 35.0629C26.3446 35.0629 25.9686 35.0229 25.6486 34.9429C25.6166 34.9429 25.6006 34.9029 25.6006 34.8229C25.6006 34.7749 25.6086 34.7269 25.6246 34.6789C25.6566 34.6309 25.6886 34.6149 25.7206 34.6309C25.9606 34.6949 26.2326 34.7269 26.5366 34.7269C27.2726 34.7269 27.8806 34.3829 28.3606 33.6949C28.8566 33.0069 29.1046 32.0309 29.1046 30.7669C29.1046 29.5029 28.8326 28.5269 28.2886 27.8389C27.7606 27.1509 26.9846 26.8069 25.9606 26.8069C25.5126 26.8069 25.2086 26.9109 25.0486 27.1189C24.8886 27.3269 24.8086 27.7349 24.8086 28.3429V39.3109ZM46.4742 41.0629C46.5222 41.0629 46.5462 41.1109 46.5462 41.2069C46.5462 41.3029 46.5222 41.3509 46.4742 41.3509H42.5382C42.2982 41.3509 41.8662 40.8709 41.2422 39.9109C40.6342 38.9509 39.9062 37.6309 39.0582 35.9509C38.7222 35.9989 38.3862 36.0229 38.0502 36.0229H37.6422V39.4069C37.6422 39.9029 37.6742 40.2629 37.7382 40.4869C37.8182 40.7109 37.9542 40.8629 38.1462 40.9429C38.3542 41.0229 38.6822 41.0629 39.1302 41.0629C39.1622 41.0629 39.1782 41.1109 39.1782 41.2069C39.1782 41.3029 39.1622 41.3509 39.1302 41.3509C38.6502 41.3509 38.2742 41.3429 38.0022 41.3269L36.3702 41.3029L34.8102 41.3269C34.5222 41.3429 34.1222 41.3509 33.6102 41.3509C33.5782 41.3509 33.5622 41.3029 33.5622 41.2069C33.5622 41.1109 33.5782 41.0629 33.6102 41.0629C34.0582 41.0629 34.3862 41.0229 34.5942 40.9429C34.8022 40.8629 34.9462 40.7109 35.0262 40.4869C35.1062 40.2469 35.1462 39.8869 35.1462 39.4069V32.0629C35.1462 31.5829 35.1062 31.2309 35.0262 31.0069C34.9622 30.7829 34.8262 30.6309 34.6182 30.5509C34.4102 30.4549 34.0902 30.4069 33.6582 30.4069C33.6102 30.4069 33.5862 30.3589 33.5862 30.2629C33.5862 30.1669 33.6102 30.1189 33.6582 30.1189L34.8342 30.1429C35.4742 30.1749 35.9862 30.1909 36.3702 30.1909C36.6742 30.1909 36.9542 30.1829 37.2102 30.1669C37.4662 30.1509 37.6902 30.1349 37.8822 30.1189C38.4102 30.0709 38.9062 30.0469 39.3702 30.0469C40.6182 30.0469 41.5702 30.2469 42.2262 30.6469C42.8822 31.0469 43.2102 31.6229 43.2102 32.3749C43.2102 32.9989 43.0102 33.5749 42.6102 34.1029C42.2102 34.6309 41.6582 35.0629 40.9542 35.3989C41.8182 36.8549 42.5622 37.9909 43.1862 38.8069C43.8102 39.6229 44.3782 40.2069 44.8902 40.5589C45.4022 40.8949 45.9302 41.0629 46.4742 41.0629ZM37.6422 35.5429C37.7542 35.5589 37.9462 35.5669 38.2182 35.5669C39.1302 35.5669 39.7622 35.3589 40.1142 34.9429C40.4662 34.5109 40.6422 33.8709 40.6422 33.0229C40.6422 31.3589 40.0342 30.5269 38.8182 30.5269C38.4822 30.5269 38.2342 30.5669 38.0742 30.6469C37.9142 30.7269 37.8022 30.8789 37.7382 31.1029C37.6742 31.3109 37.6422 31.6469 37.6422 32.1109V35.5429ZM52.3339 41.6389C51.1979 41.6389 50.1819 41.3749 49.2859 40.8469C48.3899 40.3029 47.6939 39.5829 47.1979 38.6869C46.7019 37.7749 46.4539 36.7909 46.4539 35.7349C46.4539 34.5189 46.7659 33.4629 47.3899 32.5669C48.0299 31.6709 48.8379 30.9909 49.8139 30.5269C50.8059 30.0629 51.8219 29.8309 52.8619 29.8309C53.9979 29.8309 54.9979 30.1109 55.8619 30.6709C56.7419 31.2149 57.4219 31.9349 57.9019 32.8309C58.3819 33.7109 58.6219 34.6389 58.6219 35.6149C58.6219 36.6869 58.3419 37.6869 57.7819 38.6149C57.2219 39.5269 56.4619 40.2629 55.5019 40.8229C54.5419 41.3669 53.4859 41.6389 52.3339 41.6389ZM52.8859 41.0869C53.7819 41.0869 54.5019 40.6469 55.0459 39.7669C55.6059 38.8869 55.8859 37.6709 55.8859 36.1189C55.8859 35.0629 55.7259 34.1029 55.4059 33.2389C55.0859 32.3749 54.6299 31.6949 54.0379 31.1989C53.4619 30.6869 52.7899 30.4309 52.0219 30.4309C51.0939 30.4309 50.3899 30.8149 49.9099 31.5829C49.4299 32.3509 49.1899 33.4869 49.1899 34.9909C49.1899 36.1269 49.3499 37.1669 49.6699 38.1109C50.0059 39.0389 50.4539 39.7669 51.0139 40.2949C51.5739 40.8229 52.1979 41.0869 52.8859 41.0869ZM61.6071 32.0629C61.6071 31.5829 61.5751 31.2309 61.5111 31.0069C61.4471 30.7829 61.3271 30.6309 61.1511 30.5509C60.9751 30.4549 60.7111 30.4069 60.3591 30.4069C60.3271 30.4069 60.3111 30.3589 60.3111 30.2629C60.3111 30.1669 60.3271 30.1189 60.3591 30.1189L61.4151 30.1429C62.0231 30.1749 62.4951 30.1909 62.8311 30.1909C63.2311 30.1909 63.7031 30.1749 64.2471 30.1429L65.1831 30.1189C65.2311 30.1189 65.2551 30.1669 65.2551 30.2629C65.2551 30.3589 65.2311 30.4069 65.1831 30.4069C64.6871 30.4069 64.3591 30.5189 64.1991 30.7429C64.0551 30.9669 63.9831 31.4229 63.9831 32.1109V39.6949C63.9831 40.9109 63.8631 41.8789 63.6231 42.5989C63.3991 43.3349 63.0071 43.9429 62.4471 44.4229C61.9031 44.9029 61.1031 45.3269 60.0471 45.6949C60.0151 45.7109 59.9751 45.6789 59.9271 45.5989C59.8951 45.5189 59.9031 45.4709 59.9511 45.4549C60.4791 45.1189 60.8871 44.5509 61.1751 43.7509C61.4631 42.9509 61.6071 41.9749 61.6071 40.8229V32.0629ZM75.8976 38.1589C75.9296 38.1109 75.9856 38.0869 76.0656 38.0869C76.1456 38.0869 76.1856 38.1109 76.1856 38.1589C76.0736 39.3109 76.0176 40.2549 76.0176 40.9909C76.0176 41.1189 75.9936 41.2149 75.9456 41.2789C75.8976 41.3269 75.8016 41.3509 75.6576 41.3509H66.6336C66.6016 41.3509 66.5856 41.3029 66.5856 41.2069C66.5856 41.1109 66.6016 41.0629 66.6336 41.0629C67.0976 41.0629 67.4336 41.0229 67.6416 40.9429C67.8496 40.8629 67.9936 40.7109 68.0736 40.4869C68.1536 40.2469 68.1936 39.8869 68.1936 39.4069V32.0629C68.1936 31.5829 68.1536 31.2309 68.0736 31.0069C67.9936 30.7829 67.8416 30.6309 67.6176 30.5509C67.4096 30.4549 67.0816 30.4069 66.6336 30.4069C66.6016 30.4069 66.5856 30.3589 66.5856 30.2629C66.5856 30.1669 66.6016 30.1189 66.6336 30.1189H75.2256C75.3856 30.1189 75.4656 30.1829 75.4656 30.3109L75.4896 31.7989C75.5056 32.1029 75.5136 32.4869 75.5136 32.9509C75.5136 32.9989 75.4656 33.0229 75.3696 33.0229C75.2896 33.0229 75.2416 32.9989 75.2256 32.9509C74.9216 32.2469 74.4576 31.6549 73.8336 31.1749C73.2096 30.6789 72.5776 30.4309 71.9376 30.4309H71.7696C71.4176 30.4309 71.1536 30.4789 70.9776 30.5749C70.8176 30.6549 70.7056 30.8069 70.6416 31.0309C70.5936 31.2549 70.5696 31.6069 70.5696 32.0869V35.3269C71.7856 35.3109 72.6816 35.2629 73.2576 35.1829C73.8336 35.1029 74.1616 35.0629 74.2416 35.0629C74.3536 35.0629 74.4096 35.2389 74.4096 35.5909C74.4096 35.7509 74.3936 35.8949 74.3616 36.0229C74.3296 36.1509 74.2896 36.2149 74.2416 36.2149C74.1456 36.2149 73.8096 36.1749 73.2336 36.0949C72.6576 36.0149 71.7696 35.9589 70.5696 35.9269V39.3109C70.5696 39.7909 70.5936 40.1429 70.6416 40.3669C70.7056 40.5909 70.8176 40.7509 70.9776 40.8469C71.1536 40.9269 71.4176 40.9669 71.7696 40.9669H72.0336C72.7856 40.9669 73.5296 40.7029 74.2656 40.1749C75.0016 39.6309 75.5456 38.9589 75.8976 38.1589ZM84.4384 29.8309C85.0304 29.8309 85.6704 29.8949 86.3584 30.0229C87.0624 30.1509 87.6384 30.3189 88.0864 30.5269C88.1984 30.5749 88.2704 30.6309 88.3024 30.6949C88.3344 30.7429 88.3504 30.8229 88.3504 30.9349L88.4704 33.4069C88.4704 33.4549 88.4304 33.4869 88.3504 33.5029C88.2704 33.5189 88.2144 33.4949 88.1824 33.4309C87.5744 32.3909 86.9504 31.6229 86.3104 31.1269C85.6864 30.6149 84.9664 30.3589 84.1504 30.3589C83.0144 30.3589 82.1424 30.8149 81.5344 31.7269C80.9264 32.6229 80.6224 33.8229 80.6224 35.3269C80.6224 36.3189 80.7584 37.2549 81.0304 38.1349C81.3184 39.0149 81.7664 39.7349 82.3744 40.2949C82.9824 40.8549 83.7504 41.1349 84.6784 41.1349C85.4944 41.1349 86.1824 40.8869 86.7424 40.3909C87.3184 39.8949 87.8784 39.0949 88.4224 37.9909C88.4384 37.9269 88.4864 37.9029 88.5664 37.9189C88.6464 37.9349 88.6864 37.9669 88.6864 38.0149L88.4944 40.5589C88.4784 40.6869 88.4544 40.7749 88.4224 40.8229C88.3904 40.8709 88.3024 40.9269 88.1584 40.9909C86.9264 41.4229 85.6464 41.6389 84.3184 41.6389C82.7824 41.6389 81.5264 41.3349 80.5504 40.7269C79.5744 40.1189 78.8624 39.3589 78.4144 38.4469C77.9824 37.5349 77.7664 36.6149 77.7664 35.6869C77.7664 34.5989 78.0544 33.6069 78.6304 32.7109C79.2224 31.8149 80.0224 31.1109 81.0304 30.5989C82.0544 30.0869 83.1904 29.8309 84.4384 29.8309ZM93.685 30.5989C93.077 30.5989 92.493 30.8549 91.933 31.3669C91.389 31.8789 90.957 32.5749 90.637 33.4549C90.621 33.5029 90.573 33.5269 90.493 33.5269C90.413 33.5269 90.373 33.5029 90.373 33.4549C90.437 32.9429 90.509 32.2789 90.589 31.4629C90.669 30.6309 90.709 30.0069 90.709 29.5909C90.709 29.5109 90.749 29.4709 90.829 29.4709C90.925 29.4709 90.973 29.5109 90.973 29.5909C90.973 29.7989 91.093 29.9349 91.333 29.9989C91.573 30.0469 91.877 30.0709 92.245 30.0709C93.621 30.1029 94.829 30.1189 95.869 30.1189L97.957 30.0949C98.229 30.0789 98.597 30.0709 99.061 30.0709C99.685 30.0709 100.149 30.0389 100.453 29.9749C100.773 29.8949 100.973 29.7349 101.053 29.4949C101.069 29.4469 101.117 29.4229 101.197 29.4229C101.293 29.4229 101.341 29.4469 101.341 29.4949L101.269 30.6949C101.173 32.1029 101.125 33.0229 101.125 33.4549C101.125 33.5029 101.077 33.5269 100.981 33.5269C100.885 33.5269 100.837 33.5029 100.837 33.4549C100.757 32.9589 100.573 32.4949 100.285 32.0629C99.997 31.6149 99.653 31.2629 99.253 31.0069C98.869 30.7349 98.477 30.5989 98.077 30.5989C97.693 30.5989 97.437 30.7029 97.309 30.9109C97.181 31.1029 97.117 31.4869 97.117 32.0629V39.4069C97.117 39.8869 97.157 40.2469 97.237 40.4869C97.333 40.7109 97.501 40.8629 97.741 40.9429C97.981 41.0229 98.365 41.0629 98.893 41.0629C98.941 41.0629 98.965 41.1109 98.965 41.2069C98.965 41.3029 98.941 41.3509 98.893 41.3509C98.365 41.3509 97.949 41.3429 97.645 41.3269L95.845 41.3029L94.093 41.3269C93.789 41.3429 93.357 41.3509 92.797 41.3509C92.765 41.3509 92.749 41.3029 92.749 41.2069C92.749 41.1109 92.765 41.0629 92.797 41.0629C93.341 41.0629 93.733 41.0229 93.973 40.9429C94.229 40.8629 94.397 40.7109 94.477 40.4869C94.573 40.2469 94.621 39.8869 94.621 39.4069V32.0149C94.621 31.4229 94.565 31.0389 94.453 30.8629C94.341 30.6869 94.085 30.5989 93.685 30.5989ZM105.252 31.8949C105.252 32.3429 105.372 32.7349 105.612 33.0709C105.868 33.3909 106.172 33.6709 106.524 33.9109C106.892 34.1349 107.388 34.4069 108.012 34.7269C108.732 35.1109 109.292 35.4389 109.692 35.7109C110.108 35.9669 110.46 36.3029 110.748 36.7189C111.052 37.1349 111.204 37.6309 111.204 38.2069C111.204 38.8469 111.012 39.4309 110.628 39.9589C110.26 40.4709 109.748 40.8789 109.092 41.1829C108.436 41.4869 107.7 41.6389 106.884 41.6389C106.148 41.6389 105.428 41.5429 104.724 41.3509C104.036 41.1749 103.556 40.9749 103.284 40.7509C103.156 40.6709 103.092 40.5029 103.092 40.2469L102.972 37.5349C102.972 37.4709 103.012 37.4309 103.092 37.4149C103.172 37.3989 103.228 37.4229 103.26 37.4869C103.868 38.5429 104.484 39.4069 105.108 40.0789C105.732 40.7509 106.444 41.0869 107.244 41.0869C107.724 41.0869 108.124 40.9429 108.444 40.6549C108.764 40.3669 108.924 39.9349 108.924 39.3589C108.924 38.8469 108.788 38.3989 108.516 38.0149C108.26 37.6309 107.94 37.3109 107.556 37.0549C107.172 36.7829 106.66 36.4709 106.02 36.1189C105.076 35.6069 104.356 35.1269 103.86 34.6789C103.364 34.2149 103.116 33.6149 103.116 32.8789C103.116 31.9509 103.524 31.2149 104.34 30.6709C105.156 30.1109 106.14 29.8309 107.292 29.8309C107.804 29.8309 108.34 29.8869 108.9 29.9989C109.46 30.1109 109.908 30.2389 110.244 30.3829C110.388 30.4309 110.484 30.4949 110.532 30.5749C110.58 30.6389 110.604 30.7349 110.604 30.8629V33.1429C110.604 33.1909 110.564 33.2309 110.484 33.2629C110.404 33.2789 110.348 33.2629 110.316 33.2149C110.012 32.5749 109.588 31.9429 109.044 31.3189C108.5 30.6949 107.78 30.3829 106.884 30.3829C106.34 30.3829 105.932 30.5269 105.66 30.8149C105.388 31.0869 105.252 31.4469 105.252 31.8949Z" fill="black"/>
</g>
<defs>
<filter id="filter0_d" x="0" y="0" width="131" height="76" filterUnits="userSpaceOnUse" color-interpolation-filters="sRGB">
<feFlood flood-opacity="0" result="BackgroundImageFix"/>
<feColorMatrix in="SourceAlpha" type="matrix" values="0 0 0 0 0 0 0 0 0 0 0 0 0 0 0 0 0 0 127 0"/>
<feOffset dy="4"/>
<feGaussianBlur stdDeviation="2"/>
<feColorMatrix type="matrix" values="0 0 0 0 0 0 0 0 0 0 0 0 0 0 0 0 0 0 0.25 0"/>
<feBlend mode="normal" in2="BackgroundImageFix" result="effect1_dropShadow"/>
<feBlend mode="normal" in="SourceGraphic" in2="effect1_dropShadow" result="shape"/>
</filter>
</defs>
</svg>
