<svg height="60" viewBox="0 0 120 60" width="120" xmlns="http://www.w3.org/2000/svg" xmlns:xlink="http://www.w3.org/1999/xlink"><linearGradient id="a" gradientTransform="matrix(1.1277828 0 0 .67666973 -17.165879 5.539846)" gradientUnits="userSpaceOnUse" x1="21.688707" x2="52.672573" y1="20.65591" y2="51.639778"><stop offset="0" stop-color="#2383ae"/><stop offset="1" stop-color="#6dd7b9"/></linearGradient><g fill-rule="evenodd" transform="translate(1.332678)"><path d="m16.030043 26.505693c1.164477-4.658786 4.076982-6.988614 8.735768-6.988614 6.988615 0 7.862192 5.24146 11.356499 6.115037 2.329831.582677 4.367884-.290901 6.115038-2.62073-1.164477 4.658785-4.076983 6.988614-8.735768 6.988614-6.988616 0-7.862192-5.241462-11.3565-6.115038-2.32983-.582676-4.367884.290902-6.115037 2.620731zm-8.7357689 10.482923c1.1644781-4.658786 4.0769839-6.988616 8.7357689-6.988616 6.988614 0 7.862191 5.241461 11.356498 6.115037 2.32983.582676 4.367885-.2909 6.115039-2.62073-1.164478 4.658785-4.076984 6.988614-8.735769 6.988614-6.988615 0-7.862191-5.241461-11.3565-6.115037-2.329828-.582677-4.367883.290902-6.1150369 2.620732z" fill="url(#a)" stroke-width=".873577"/><path d="m48.598491 27.578305h-2.286935v-1.370169h6.169746v1.370169h-2.286271v6.213559h-1.59654zm6.868772 5.512542c-.219068.247613-.466017.449421-.73952.605424-.272175.156003-.625339.233673-1.058164.233673-.248277 0-.484604-.03187-.706991-.09559-.224379-.06373-.419549-.162641-.586173-.297401-.16596-.13476-.298729-.305367-.398305-.515141-.09958-.20911-.149364-.458052-.149364-.748814 0-.382373.08497-.693714.255579-.934689.169943-.240974.393658-.428178.67048-.562938.276158-.13476.586172-.230353.929379-.286779.345197-.05643.693714-.09294 1.04887-.106215l.712302-.03187v-.276157c0-.339887-.09294-.573559-.282133-.701017-.187867-.127457-.408926-.191186-.663842-.191186-.589491 0-.926059.223051-1.011031.669152l-1.360875-.127457c.09825-.580862.353827-1.00041.764745-1.258644.411582-.258899.964562-.387684 1.659605-.387684.424859 0 .787316.05112 1.084717.154011.298729.102896.537712.249605.718277.440791.180565.191187.312006.422868.393658.695707.08165.272175.122147.57887.122147.918757v3.505084h-1.404025v-.701017zm-.03186-1.773785-.659195.03186c-.312005.01328-.564265.04647-.754788.09559-.191186.04979-.338559.111525-.441455.185875-.102895.07435-.172598.161314-.207118.260226-.03585.09958-.05311.209111-.05311.329266 0 .183883.06373.329266.191187.43548s.305367.159322.531073.159322c.383701 0 .695707-.08829.936017-.265537.135424-.09958.245622-.225707.330593-.377062.08497-.152684.127458-.341879.127458-.568249v-.28678zm2.646074-3.069604h1.488997v5.544406h-1.488997zm-.02124-2.039322h1.531483v1.338305h-1.531483zm2.784152 0h1.488997v7.583728h-1.488997zm2.157486 2.039322h1.615791l.776695 3.675028 1.063475-3.632542h1.29781l1.010368 3.632542.776695-3.675028h1.553389l-1.617118 5.544406h-1.447175l-.989125-3.653785-1.000409 3.653785h-1.425269l-1.616455-5.544406zm8.761384 0h1.488998v5.544406h-1.488998zm-.02124-2.039322h1.531483v1.338305h-1.531483zm2.773531 2.039322h1.447176v.764745c.219067-.325282.479957-.562937.781341-.711638.301385-.148701.615382-.223051.941328-.223051.631978 0 1.099986.164632 1.404689.493898.305368.329266.458051.847726.458051 1.556046v3.664406h-1.491652v-3.462598c0-.389676-.07435-.655212-.223715-.796611-.148701-.141398-.347189-.212429-.595466-.212429-.191187 0-.356483.02855-.494562.08497-.138079.05643-.267528.138079-.388348.244294-.09958.09958-.182556.21774-.250268.355819-.06638.138079-.09958.288771-.09958.451412v3.335141h-1.489661v-5.544406zm10.081102 4.811524c-.424859.602105-.999746.902825-1.723333.902825-.780014 0-1.360876-.262217-1.744576-.785989-.382373-.524435-.574224-1.250014-.574224-2.177401 0-.431497.0551-.826483.165961-1.184294.10887-.358474.266864-.665833.472655-.924067.205791-.258899.458051-.458051.754788-.600113.298729-.141399.634633-.21243 1.011031-.21243.276159 0 .550989.04979.823164.148701.274167.09958.531074.290099.772048.573559v-2.591638h1.488997v7.583728h-1.445847v-.732881zm-.03186-2.103051c0-.353827-.02987-.637288-.09028-.849717-.05974-.21243-.157994-.385029-.29209-.520451-.128122-.127459-.268192-.210438-.420876-.249605-.152683-.03983-.302712-.05842-.451412-.05842-.163305 0-.318644.03186-.463362.09559-.146045.06373-.272175.162642-.383037.297401-.110197.13476-.197161.312006-.260889.531074-.06373.219068-.09559.481285-.09559.785989 0 .331921.02987.610734.09028.833785.05975.223051.142726.403616.248941.541695.106214.138078.231017.23699.371751.297401.142726.05975.29541.09028.458051.09028.354491 0 .645254-.102895.872288-.308022.141398-.141398.245621-.313333.313333-.515141.06638-.201808.100904-.462034.100904-.780679v-.191186zm11.642457.21243c-.03585.403615-.129449.776695-.282132 1.120566-.152684.343205-.361794.640606-.627331.892202-.265537.25226-.592147.448093-.979167.589491-.386355.141399-.834449.21243-1.344943.21243-.574223 0-1.079407-.09559-1.515551-.28678-.436144-.191186-.801257-.460042-1.095339-.807231-.294746-.34719-.515805-.766738-.665169-1.258645-.148701-.491242-.223051-1.035593-.223051-1.630395 0-.616045.08099-1.168362.24363-1.656949.163305-.488588.398305-.906144.702344-1.253333.305368-.34719.6738-.612726 1.105961-.796611.433489-.183884.92274-.276158 1.469082-.276158.481949 0 .902825.05975 1.259971.180565.358475.119492.660523.294082.904817.520452.245621.225706.441455.499209.590819.817853.148701.318644.258898.677119.329266 1.072769l-1.574633.201807c-.07833-.446101-.229026-.79661-.451413-1.051525-.224378-.254915-.577542-.382373-1.058827-.382373-.610735 0-1.072769.228362-1.38743.685085-.316652.456723-.474647 1.101977-.474647 1.938418 0 .843079.168616 1.490325.505848 1.943729.336568.453404.788644.679774 1.356229.679774.489251 0 .849717-.12613 1.079407-.377062.229689-.25226.373079-.610735.430169-1.078079zm2.316808.1487c.03452.467346.185876.807232.451413 1.019661.265536.212431.657203.318644 1.175.318644.24828 0 .45805-.02655.62799-.07966.16995-.05311.30803-.124138.4149-.212429.10622-.08829.18256-.192514.22837-.313333.0465-.119492.069-.25226.069-.392995 0-.199152-.073-.385028-.22239-.557627-.14936-.172599-.4222-.298729-.81918-.377062l-.989125-.180565c-.389675-.07103-.733545-.162641-1.03161-.276158-.297401-.112853-.547669-.260226-.750141-.440791-.201808-.180565-.355819-.401625-.462034-.663842-.106215-.262218-.159322-.573558-.159322-.934688s.07302-.679774.21774-.955934c.146045-.276157.347189-.506511.606088-.690394.258898-.183884.570904-.323956.93137-.419548.361793-.09559.758771-.14339 1.191594-.14339.55298 0 1.01435.06373 1.38278.191187.3691.127457.66716.295409.8942.504518.22703.209111.39498.451413.50452.727572.11086.276157.18322.562937.21907.860338l-1.50029.191186c-.0777-.41822-.22836-.71894-.45141-.902824-.22371-.183885-.56227-.276159-1.01568-.276159-.27018 0-.491239.02323-.665166.06904-.173926.04647-.313997.106214-.420212.180565-.106214.07435-.181228.161313-.223714.260226-.04249.09958-.06373.201808-.06373.308022 0 .283461.07966.49589.238983.637289.159322.141398.430169.252259.813206.329265l1.042233.201808c.82316.162641 1.42593.42685 1.80897.791298.38237.365114.57422.889549.57422 1.577289 0 .331922-.0624.639279-.18588.918757-.1248.278813-.30868.524435-.55364.732881-.24363.209111-.55099.371752-.91942.488588s-.80126.175255-1.29781.175255c-1.035594 0-1.827557-.221059-2.376554-.663843-.550989-.442782-.846398-1.109943-.889548-2.002147h1.606482zm6.899973 0c.0352.467346.18587.807232.45141 1.019661.26554.212431.65854.318644 1.17501.318644.24894 0 .45805-.02655.62864-.07966.16995-.05311.30803-.124138.41492-.212429.10621-.08829.18255-.192514.22835-.313333.0465-.119492.069-.25226.069-.392995 0-.199152-.0744-.385028-.22305-.557627-.1487-.172599-.42221-.298729-.81918-.377062l-.98913-.180564c-.39033-.07103-.7342-.162641-1.0316-.276158-.29873-.112853-.54834-.260226-.75015-.440791-.2018-.180565-.35648-.401625-.46269-.663842-.10622-.262218-.15933-.573559-.15933-.934689s.073-.679774.21774-.955933c.14605-.276158.34786-.506511.60609-.690395.2589-.183884.56958-.323955.93071-.419548.36179-.09559.75876-.14339 1.19159-.14339.55298 0 1.01435.06373 1.38278.191187.3691.127457.6665.295409.89353.504519.22704.209111.39565.451413.50452.727571.11086.276158.18322.562938.21907.860339l-1.50028.191186c-.0777-.41822-.22836-.71894-.45141-.902824-.22372-.183885-.56228-.276159-1.01568-.276159-.27019 0-.49124.02323-.66517.06904-.17393.04647-.31399.106215-.42021.180565-.10621.07435-.18123.161313-.22371.260226-.0425.09958-.0637.201808-.0637.308022 0 .283461.0797.49589.23898.637289.15932.141398.43149.252259.81387.329265l1.04223.201808c.82316.162641 1.42593.42685 1.80897.791299.38303.365113.57422.889549.57422 1.577289 0 .331921-.0617.639279-.18588.918757-.12413.278813-.30868.524435-.55364.732881-.24429.20911-.55099.371751-.92008.488588-.36844.116836-.80126.175254-1.29715.175254-1.03559 0-1.82822-.221059-2.37788-.663842-.54966-.442782-.84573-1.109943-.88822-2.002147z" fill="#24292e" stroke-width=".663842"/></g></svg>