<svg height="64" viewBox="0 0 64 64" width="64" xmlns="http://www.w3.org/2000/svg" xmlns:xlink="http://www.w3.org/1999/xlink"><linearGradient id="a" gradientTransform="matrix(2.065591 0 0 1.2393547 -44.800003 -12.800003)" gradientUnits="userSpaceOnUse" x1="21.688707" x2="52.672573" y1="20.65591" y2="51.639778"><stop offset="0" stop-color="#2383ae"/><stop offset="1" stop-color="#6dd7b9"/></linearGradient><path d="m16.000001 25.600001c2.132798-8.532801 7.467198-12.799999 15.999999-12.799999 12.8 0 14.400001 9.599998 20.8 11.199999 4.267203 1.067202 7.999999-.5328 11.2-4.799999-2.132798 8.532799-7.4672 12.799998-15.999999 12.799998-12.800002 0-14.400001-9.600001-20.800002-11.2-4.267201-1.0672-7.999999.532802-11.199998 4.800001zm-16.000001 19.200001c2.1328-8.532801 7.467202-12.800002 16.000001-12.800002 12.799998 0 14.399999 9.6 20.799998 11.199998 4.267201 1.067201 8.000001-.532798 11.200002-4.799999-2.1328 8.5328-7.467202 12.799999-16.000001 12.799999-12.8 0-14.399999-9.6-20.800002-11.199998-4.267197-1.067203-7.999997.532801-11.199998 4.800002z" fill="url(#a)" fill-rule="evenodd" stroke-width="1.6"/></svg>