<?xml version="1.0" standalone="no"?>
<!DOCTYPE svg PUBLIC "-//W3C//DTD SVG 20010904//EN"
 "http://www.w3.org/TR/2001/REC-SVG-20010904/DTD/svg10.dtd">
<svg version="1.0" xmlns="http://www.w3.org/2000/svg"
 width="700.000000pt" height="700.000000pt" viewBox="0 0 700.000000 700.000000"
 preserveAspectRatio="xMidYMid meet">
<metadata>
Created by potrace 1.11, written by Peter Selinger 2001-2013
</metadata>
<g transform="translate(0.000000,700.000000) scale(0.100000,-0.100000)"
fill="#000000" stroke="none">
<path d="M2534 6082 c-294 -102 -1024 -819 -1342 -1318 -282 -443 -341 -766
-180 -990 59 -83 205 -175 306 -194 177 -33 594 138 1022 418 328 214 514 396
493 483 -9 38 -43 69 -76 69 -32 0 -159 -60 -234 -111 -26 -18 -106 -82 -178
-143 -546 -465 -648 -533 -878 -581 -89 -19 -203 -19 -258 0 -121 43 -173 186
-135 373 128 631 981 1696 1456 1818 67 17 153 15 172 -4 33 -33 25 -179 -22
-411 -42 -208 -39 -263 13 -228 32 21 72 99 102 202 21 71 28 119 32 227 10
240 -28 346 -139 393 -48 19 -91 19 -154 -3z"/>
<path d="M4230 4699 c-277 -31 -540 -139 -788 -324 -198 -148 -272 -246 -280
-370 -2 -33 0 -76 5 -95 11 -40 -14 -102 -227 -555 -142 -302 -138 -294 -197
-450 -63 -165 -93 -279 -93 -348 0 -48 4 -62 25 -83 19 -19 31 -23 52 -18 16
4 31 9 34 13 3 3 19 53 34 111 66 246 149 450 339 830 170 341 251 518 282
621 22 70 30 82 93 141 137 130 297 221 504 287 157 50 261 65 447 65 250 -1
423 -44 567 -142 103 -70 177 -182 189 -289 33 -278 -321 -680 -911 -1033 -49
-30 -142 -88 -205 -129 -223 -144 -413 -233 -810 -381 -631 -233 -760 -299
-760 -388 0 -43 7 -55 37 -71 96 -50 560 96 1043 330 890 432 1577 968 1764
1379 70 154 74 327 11 450 -101 195 -408 377 -736 435 -108 20 -311 26 -419
14z"/>
<path d="M6120 3275 c-466 -80 -1224 -453 -1371 -674 -16 -25 -29 -56 -29 -71
0 -66 145 -150 620 -357 534 -233 744 -393 767 -582 6 -56 -16 -144 -53 -207
-83 -142 -311 -319 -532 -414 -221 -95 -405 -130 -737 -137 l-241 -6 -60 31
c-33 17 -86 52 -118 77 -51 42 -60 46 -82 36 -80 -36 32 -156 224 -240 138
-60 209 -74 387 -74 275 0 558 72 803 204 262 141 450 345 492 534 40 179 -13
327 -175 491 -192 194 -495 354 -977 513 -139 46 -178 70 -178 106 0 50 90
125 237 198 142 71 509 209 793 299 172 54 505 148 527 148 16 0 18 62 3 89
-25 48 -147 62 -300 36z"/>
</g>
</svg>
